<mxfile host="app.diagrams.net" agent="Mozilla/5.0 (Windows NT 10.0; Win64; x64) AppleWebKit/537.36 (KHTML, like Gecko) Chrome/129.0.0.0 Safari/537.36" version="24.7.16">
  <diagram name="Page-1" id="4d_F0u1kw5Mw1gYKqeSX">
    <mxGraphModel dx="2261" dy="780" grid="1" gridSize="10" guides="1" tooltips="1" connect="1" arrows="1" fold="1" page="1" pageScale="1" pageWidth="827" pageHeight="1169" math="0" shadow="0">
      <root>
        <mxCell id="0" />
        <mxCell id="1" parent="0" />
        <mxCell id="1zBLeMrhRtIh_GhyTYqe-1" value="" style="ellipse;html=1;shape=startState;fillColor=#000000;strokeColor=#ff0000;" vertex="1" parent="1">
          <mxGeometry x="350" y="50" width="30" height="30" as="geometry" />
        </mxCell>
        <mxCell id="1zBLeMrhRtIh_GhyTYqe-2" value="" style="edgeStyle=orthogonalEdgeStyle;html=1;verticalAlign=bottom;endArrow=open;endSize=8;strokeColor=#ff0000;rounded=0;" edge="1" source="1zBLeMrhRtIh_GhyTYqe-1" parent="1">
          <mxGeometry relative="1" as="geometry">
            <mxPoint x="365" y="140" as="targetPoint" />
          </mxGeometry>
        </mxCell>
        <mxCell id="1zBLeMrhRtIh_GhyTYqe-3" value="Display window" style="edgeLabel;html=1;align=center;verticalAlign=middle;resizable=0;points=[];" vertex="1" connectable="0" parent="1zBLeMrhRtIh_GhyTYqe-2">
          <mxGeometry x="-0.0414" y="1" relative="1" as="geometry">
            <mxPoint as="offset" />
          </mxGeometry>
        </mxCell>
        <mxCell id="1zBLeMrhRtIh_GhyTYqe-4" value="Ask for Card" style="rounded=1;whiteSpace=wrap;html=1;arcSize=40;fontColor=#000000;fillColor=#ffffc0;strokeColor=#ff0000;" vertex="1" parent="1">
          <mxGeometry x="305" y="140" width="120" height="40" as="geometry" />
        </mxCell>
        <mxCell id="1zBLeMrhRtIh_GhyTYqe-5" value="" style="edgeStyle=orthogonalEdgeStyle;html=1;verticalAlign=bottom;endArrow=open;endSize=8;strokeColor=#ff0000;rounded=0;" edge="1" source="1zBLeMrhRtIh_GhyTYqe-4" parent="1">
          <mxGeometry relative="1" as="geometry">
            <mxPoint x="365" y="240" as="targetPoint" />
          </mxGeometry>
        </mxCell>
        <mxCell id="1zBLeMrhRtIh_GhyTYqe-6" value="card inserted" style="edgeLabel;html=1;align=center;verticalAlign=middle;resizable=0;points=[];" vertex="1" connectable="0" parent="1zBLeMrhRtIh_GhyTYqe-5">
          <mxGeometry x="0.1071" y="1" relative="1" as="geometry">
            <mxPoint as="offset" />
          </mxGeometry>
        </mxCell>
        <mxCell id="1zBLeMrhRtIh_GhyTYqe-13" style="edgeStyle=orthogonalEdgeStyle;rounded=0;orthogonalLoop=1;jettySize=auto;html=1;" edge="1" parent="1" source="1zBLeMrhRtIh_GhyTYqe-7">
          <mxGeometry relative="1" as="geometry">
            <mxPoint x="270" y="350" as="targetPoint" />
          </mxGeometry>
        </mxCell>
        <mxCell id="1zBLeMrhRtIh_GhyTYqe-7" value="Validate card" style="rounded=1;whiteSpace=wrap;html=1;arcSize=40;fontColor=#000000;fillColor=#ffffc0;strokeColor=#ff0000;" vertex="1" parent="1">
          <mxGeometry x="305" y="240" width="120" height="40" as="geometry" />
        </mxCell>
        <mxCell id="1zBLeMrhRtIh_GhyTYqe-8" value="" style="edgeStyle=orthogonalEdgeStyle;html=1;verticalAlign=bottom;endArrow=open;endSize=8;strokeColor=#ff0000;rounded=0;" edge="1" source="1zBLeMrhRtIh_GhyTYqe-7" parent="1">
          <mxGeometry relative="1" as="geometry">
            <mxPoint x="590" y="330" as="targetPoint" />
          </mxGeometry>
        </mxCell>
        <mxCell id="1zBLeMrhRtIh_GhyTYqe-14" value="Ask for pin" style="rounded=1;whiteSpace=wrap;html=1;arcSize=40;fontColor=#000000;fillColor=#ffffc0;strokeColor=#ff0000;" vertex="1" parent="1">
          <mxGeometry x="220" y="350" width="120" height="40" as="geometry" />
        </mxCell>
        <mxCell id="1zBLeMrhRtIh_GhyTYqe-15" value="" style="edgeStyle=orthogonalEdgeStyle;html=1;verticalAlign=bottom;endArrow=open;endSize=8;strokeColor=#ff0000;rounded=0;" edge="1" source="1zBLeMrhRtIh_GhyTYqe-14" parent="1">
          <mxGeometry relative="1" as="geometry">
            <mxPoint x="280" y="450" as="targetPoint" />
          </mxGeometry>
        </mxCell>
        <mxCell id="1zBLeMrhRtIh_GhyTYqe-16" value="validated" style="text;html=1;align=center;verticalAlign=middle;resizable=0;points=[];autosize=1;strokeColor=none;fillColor=none;" vertex="1" parent="1">
          <mxGeometry x="200" y="288" width="70" height="30" as="geometry" />
        </mxCell>
        <mxCell id="1zBLeMrhRtIh_GhyTYqe-17" value="rejected" style="text;html=1;align=center;verticalAlign=middle;resizable=0;points=[];autosize=1;strokeColor=none;fillColor=none;" vertex="1" parent="1">
          <mxGeometry x="465" y="288" width="70" height="30" as="geometry" />
        </mxCell>
        <mxCell id="1zBLeMrhRtIh_GhyTYqe-18" value="Pin entered" style="text;html=1;align=center;verticalAlign=middle;resizable=0;points=[];autosize=1;strokeColor=none;fillColor=none;" vertex="1" parent="1">
          <mxGeometry x="250" y="408" width="80" height="30" as="geometry" />
        </mxCell>
        <mxCell id="1zBLeMrhRtIh_GhyTYqe-21" style="edgeStyle=orthogonalEdgeStyle;rounded=0;orthogonalLoop=1;jettySize=auto;html=1;" edge="1" parent="1" source="1zBLeMrhRtIh_GhyTYqe-19">
          <mxGeometry relative="1" as="geometry">
            <mxPoint x="580" y="350" as="targetPoint" />
            <Array as="points">
              <mxPoint x="531" y="470" />
            </Array>
          </mxGeometry>
        </mxCell>
        <mxCell id="1zBLeMrhRtIh_GhyTYqe-19" value="Verify PIN" style="rounded=1;whiteSpace=wrap;html=1;arcSize=40;fontColor=#000000;fillColor=#ffffc0;strokeColor=#ff0000;" vertex="1" parent="1">
          <mxGeometry x="220" y="450" width="120" height="40" as="geometry" />
        </mxCell>
        <mxCell id="1zBLeMrhRtIh_GhyTYqe-20" value="" style="edgeStyle=orthogonalEdgeStyle;html=1;verticalAlign=bottom;endArrow=open;endSize=8;strokeColor=#ff0000;rounded=0;" edge="1" source="1zBLeMrhRtIh_GhyTYqe-19" parent="1">
          <mxGeometry relative="1" as="geometry">
            <mxPoint x="150" y="540" as="targetPoint" />
          </mxGeometry>
        </mxCell>
        <mxCell id="1zBLeMrhRtIh_GhyTYqe-22" value="Verified" style="text;html=1;align=center;verticalAlign=middle;resizable=0;points=[];autosize=1;strokeColor=none;fillColor=none;" vertex="1" parent="1">
          <mxGeometry x="100" y="488" width="60" height="30" as="geometry" />
        </mxCell>
        <mxCell id="1zBLeMrhRtIh_GhyTYqe-25" style="edgeStyle=orthogonalEdgeStyle;rounded=0;orthogonalLoop=1;jettySize=auto;html=1;" edge="1" parent="1" source="1zBLeMrhRtIh_GhyTYqe-23">
          <mxGeometry relative="1" as="geometry">
            <mxPoint x="260" y="630" as="targetPoint" />
          </mxGeometry>
        </mxCell>
        <mxCell id="1zBLeMrhRtIh_GhyTYqe-26" style="edgeStyle=orthogonalEdgeStyle;rounded=0;orthogonalLoop=1;jettySize=auto;html=1;" edge="1" parent="1" source="1zBLeMrhRtIh_GhyTYqe-23">
          <mxGeometry relative="1" as="geometry">
            <mxPoint x="80" y="630" as="targetPoint" />
          </mxGeometry>
        </mxCell>
        <mxCell id="1zBLeMrhRtIh_GhyTYqe-23" value="provide options" style="rounded=1;whiteSpace=wrap;html=1;arcSize=40;fontColor=#000000;fillColor=#ffffc0;strokeColor=#ff0000;" vertex="1" parent="1">
          <mxGeometry x="100" y="540" width="120" height="40" as="geometry" />
        </mxCell>
        <mxCell id="1zBLeMrhRtIh_GhyTYqe-27" value="keep pin" style="text;html=1;align=center;verticalAlign=middle;resizable=0;points=[];autosize=1;strokeColor=none;fillColor=none;" vertex="1" parent="1">
          <mxGeometry x="10" y="570" width="70" height="30" as="geometry" />
        </mxCell>
        <mxCell id="1zBLeMrhRtIh_GhyTYqe-28" value="change pin" style="text;html=1;align=center;verticalAlign=middle;resizable=0;points=[];autosize=1;strokeColor=none;fillColor=none;" vertex="1" parent="1">
          <mxGeometry x="260" y="570" width="80" height="30" as="geometry" />
        </mxCell>
        <mxCell id="1zBLeMrhRtIh_GhyTYqe-29" value="set old pin" style="rounded=1;whiteSpace=wrap;html=1;arcSize=40;fontColor=#000000;fillColor=#ffffc0;strokeColor=#ff0000;" vertex="1" parent="1">
          <mxGeometry x="25" y="630" width="120" height="40" as="geometry" />
        </mxCell>
        <mxCell id="1zBLeMrhRtIh_GhyTYqe-30" value="" style="edgeStyle=orthogonalEdgeStyle;html=1;verticalAlign=bottom;endArrow=open;endSize=8;strokeColor=#ff0000;rounded=0;" edge="1" source="1zBLeMrhRtIh_GhyTYqe-29" parent="1">
          <mxGeometry relative="1" as="geometry">
            <mxPoint x="85" y="730" as="targetPoint" />
          </mxGeometry>
        </mxCell>
        <mxCell id="1zBLeMrhRtIh_GhyTYqe-31" value="Ask for new pin" style="rounded=1;whiteSpace=wrap;html=1;arcSize=40;fontColor=#000000;fillColor=#ffffc0;strokeColor=#ff0000;" vertex="1" parent="1">
          <mxGeometry x="210" y="630" width="120" height="40" as="geometry" />
        </mxCell>
        <mxCell id="1zBLeMrhRtIh_GhyTYqe-32" value="" style="edgeStyle=orthogonalEdgeStyle;html=1;verticalAlign=bottom;endArrow=open;endSize=8;strokeColor=#ff0000;rounded=0;" edge="1" source="1zBLeMrhRtIh_GhyTYqe-31" parent="1">
          <mxGeometry relative="1" as="geometry">
            <mxPoint x="440" y="780" as="targetPoint" />
          </mxGeometry>
        </mxCell>
        <mxCell id="1zBLeMrhRtIh_GhyTYqe-33" value="show window" style="text;html=1;align=center;verticalAlign=middle;resizable=0;points=[];autosize=1;strokeColor=none;fillColor=none;" vertex="1" parent="1">
          <mxGeometry x="55" y="688" width="90" height="30" as="geometry" />
        </mxCell>
        <mxCell id="1zBLeMrhRtIh_GhyTYqe-35" value="Entered" style="text;html=1;align=center;verticalAlign=middle;resizable=0;points=[];autosize=1;strokeColor=none;fillColor=none;" vertex="1" parent="1">
          <mxGeometry x="355" y="680" width="70" height="30" as="geometry" />
        </mxCell>
        <mxCell id="1zBLeMrhRtIh_GhyTYqe-36" value="" style="rounded=1;whiteSpace=wrap;html=1;arcSize=40;fontColor=#000000;fillColor=#ffffc0;strokeColor=#ff0000;" vertex="1" parent="1">
          <mxGeometry x="25" y="730" width="120" height="40" as="geometry" />
        </mxCell>
        <mxCell id="1zBLeMrhRtIh_GhyTYqe-38" value="Ask for Card" style="rounded=1;whiteSpace=wrap;html=1;" vertex="1" parent="1">
          <mxGeometry x="305" y="140" width="120" height="60" as="geometry" />
        </mxCell>
        <mxCell id="1zBLeMrhRtIh_GhyTYqe-39" value="Validate card" style="rounded=1;whiteSpace=wrap;html=1;" vertex="1" parent="1">
          <mxGeometry x="305" y="240" width="120" height="60" as="geometry" />
        </mxCell>
        <mxCell id="1zBLeMrhRtIh_GhyTYqe-40" value="Ask for pin" style="rounded=1;whiteSpace=wrap;html=1;" vertex="1" parent="1">
          <mxGeometry x="220" y="350" width="120" height="60" as="geometry" />
        </mxCell>
        <mxCell id="1zBLeMrhRtIh_GhyTYqe-41" value="Verify PIN" style="rounded=1;whiteSpace=wrap;html=1;" vertex="1" parent="1">
          <mxGeometry x="220" y="450" width="120" height="60" as="geometry" />
        </mxCell>
        <mxCell id="1zBLeMrhRtIh_GhyTYqe-42" value="Provide Options" style="rounded=1;whiteSpace=wrap;html=1;" vertex="1" parent="1">
          <mxGeometry x="100" y="540" width="120" height="60" as="geometry" />
        </mxCell>
        <mxCell id="1zBLeMrhRtIh_GhyTYqe-43" value="Set Old Pin" style="rounded=1;whiteSpace=wrap;html=1;" vertex="1" parent="1">
          <mxGeometry x="25" y="628" width="120" height="60" as="geometry" />
        </mxCell>
        <mxCell id="1zBLeMrhRtIh_GhyTYqe-44" value="Ask for new pin" style="rounded=1;whiteSpace=wrap;html=1;" vertex="1" parent="1">
          <mxGeometry x="210" y="628" width="120" height="60" as="geometry" />
        </mxCell>
        <mxCell id="1zBLeMrhRtIh_GhyTYqe-47" style="edgeStyle=orthogonalEdgeStyle;rounded=0;orthogonalLoop=1;jettySize=auto;html=1;exitX=0;exitY=1;exitDx=0;exitDy=0;" edge="1" parent="1" source="1zBLeMrhRtIh_GhyTYqe-45">
          <mxGeometry relative="1" as="geometry">
            <mxPoint x="10" y="820" as="targetPoint" />
          </mxGeometry>
        </mxCell>
        <mxCell id="1zBLeMrhRtIh_GhyTYqe-57" style="edgeStyle=orthogonalEdgeStyle;rounded=0;orthogonalLoop=1;jettySize=auto;html=1;" edge="1" parent="1" source="1zBLeMrhRtIh_GhyTYqe-45" target="1zBLeMrhRtIh_GhyTYqe-54">
          <mxGeometry relative="1" as="geometry" />
        </mxCell>
        <mxCell id="1zBLeMrhRtIh_GhyTYqe-59" style="edgeStyle=orthogonalEdgeStyle;rounded=0;orthogonalLoop=1;jettySize=auto;html=1;exitX=1;exitY=0.5;exitDx=0;exitDy=0;" edge="1" parent="1" source="1zBLeMrhRtIh_GhyTYqe-45">
          <mxGeometry relative="1" as="geometry">
            <mxPoint x="320" y="820" as="targetPoint" />
          </mxGeometry>
        </mxCell>
        <mxCell id="1zBLeMrhRtIh_GhyTYqe-45" value="Provide Options" style="rounded=1;whiteSpace=wrap;html=1;" vertex="1" parent="1">
          <mxGeometry x="25" y="730" width="120" height="60" as="geometry" />
        </mxCell>
        <mxCell id="1zBLeMrhRtIh_GhyTYqe-50" value="Withdraw Options" style="text;html=1;align=center;verticalAlign=middle;resizable=0;points=[];autosize=1;strokeColor=none;fillColor=none;" vertex="1" parent="1">
          <mxGeometry x="-110" y="790" width="120" height="30" as="geometry" />
        </mxCell>
        <mxCell id="1zBLeMrhRtIh_GhyTYqe-63" style="edgeStyle=orthogonalEdgeStyle;rounded=0;orthogonalLoop=1;jettySize=auto;html=1;" edge="1" parent="1" source="1zBLeMrhRtIh_GhyTYqe-53">
          <mxGeometry relative="1" as="geometry">
            <mxPoint x="10" y="950" as="targetPoint" />
          </mxGeometry>
        </mxCell>
        <mxCell id="1zBLeMrhRtIh_GhyTYqe-53" value="Ask for amount" style="rounded=1;whiteSpace=wrap;html=1;" vertex="1" parent="1">
          <mxGeometry x="-50" y="820" width="120" height="60" as="geometry" />
        </mxCell>
        <mxCell id="1zBLeMrhRtIh_GhyTYqe-65" style="edgeStyle=orthogonalEdgeStyle;rounded=0;orthogonalLoop=1;jettySize=auto;html=1;" edge="1" parent="1" source="1zBLeMrhRtIh_GhyTYqe-54" target="1zBLeMrhRtIh_GhyTYqe-74">
          <mxGeometry relative="1" as="geometry">
            <mxPoint x="160" y="950" as="targetPoint" />
          </mxGeometry>
        </mxCell>
        <mxCell id="1zBLeMrhRtIh_GhyTYqe-54" value="Ask for amount" style="rounded=1;whiteSpace=wrap;html=1;" vertex="1" parent="1">
          <mxGeometry x="100" y="830" width="120" height="60" as="geometry" />
        </mxCell>
        <mxCell id="1zBLeMrhRtIh_GhyTYqe-60" value="Deposit Options" style="text;html=1;align=center;verticalAlign=middle;resizable=0;points=[];autosize=1;strokeColor=none;fillColor=none;" vertex="1" parent="1">
          <mxGeometry x="160" y="790" width="110" height="30" as="geometry" />
        </mxCell>
        <mxCell id="1zBLeMrhRtIh_GhyTYqe-61" value="Options for Money Transfer" style="text;html=1;align=center;verticalAlign=middle;resizable=0;points=[];autosize=1;strokeColor=none;fillColor=none;" vertex="1" parent="1">
          <mxGeometry x="265" y="768" width="170" height="30" as="geometry" />
        </mxCell>
        <mxCell id="1zBLeMrhRtIh_GhyTYqe-67" style="edgeStyle=orthogonalEdgeStyle;rounded=0;orthogonalLoop=1;jettySize=auto;html=1;" edge="1" parent="1" source="1zBLeMrhRtIh_GhyTYqe-62">
          <mxGeometry relative="1" as="geometry">
            <mxPoint x="380" y="950" as="targetPoint" />
          </mxGeometry>
        </mxCell>
        <mxCell id="1zBLeMrhRtIh_GhyTYqe-62" value="Ask for amount" style="rounded=1;whiteSpace=wrap;html=1;" vertex="1" parent="1">
          <mxGeometry x="265" y="820" width="120" height="60" as="geometry" />
        </mxCell>
        <mxCell id="1zBLeMrhRtIh_GhyTYqe-64" value="Amount Entered" style="text;html=1;align=center;verticalAlign=middle;resizable=0;points=[];autosize=1;strokeColor=none;fillColor=none;" vertex="1" parent="1">
          <mxGeometry x="-15" y="908" width="110" height="30" as="geometry" />
        </mxCell>
        <mxCell id="1zBLeMrhRtIh_GhyTYqe-66" value="Amount Entered" style="text;html=1;align=center;verticalAlign=middle;resizable=0;points=[];autosize=1;strokeColor=none;fillColor=none;" vertex="1" parent="1">
          <mxGeometry x="170" y="900" width="110" height="30" as="geometry" />
        </mxCell>
        <mxCell id="1zBLeMrhRtIh_GhyTYqe-68" value="Amount Entered" style="text;html=1;align=center;verticalAlign=middle;resizable=0;points=[];autosize=1;strokeColor=none;fillColor=none;" vertex="1" parent="1">
          <mxGeometry x="335" y="890" width="110" height="30" as="geometry" />
        </mxCell>
        <mxCell id="1zBLeMrhRtIh_GhyTYqe-70" style="edgeStyle=orthogonalEdgeStyle;rounded=0;orthogonalLoop=1;jettySize=auto;html=1;" edge="1" parent="1" source="1zBLeMrhRtIh_GhyTYqe-69">
          <mxGeometry relative="1" as="geometry">
            <mxPoint x="10" y="1060" as="targetPoint" />
          </mxGeometry>
        </mxCell>
        <mxCell id="1zBLeMrhRtIh_GhyTYqe-75" style="edgeStyle=orthogonalEdgeStyle;rounded=0;orthogonalLoop=1;jettySize=auto;html=1;" edge="1" parent="1" source="1zBLeMrhRtIh_GhyTYqe-69">
          <mxGeometry relative="1" as="geometry">
            <mxPoint x="180" y="1060" as="targetPoint" />
          </mxGeometry>
        </mxCell>
        <mxCell id="1zBLeMrhRtIh_GhyTYqe-69" value="Check Balance" style="rounded=1;whiteSpace=wrap;html=1;" vertex="1" parent="1">
          <mxGeometry x="-50" y="950" width="120" height="60" as="geometry" />
        </mxCell>
        <mxCell id="1zBLeMrhRtIh_GhyTYqe-71" value="Enough" style="text;html=1;align=center;verticalAlign=middle;resizable=0;points=[];autosize=1;strokeColor=none;fillColor=none;" vertex="1" parent="1">
          <mxGeometry y="1028" width="60" height="30" as="geometry" />
        </mxCell>
        <mxCell id="1zBLeMrhRtIh_GhyTYqe-91" style="edgeStyle=orthogonalEdgeStyle;rounded=0;orthogonalLoop=1;jettySize=auto;html=1;entryX=1;entryY=0.5;entryDx=0;entryDy=0;" edge="1" parent="1" source="1zBLeMrhRtIh_GhyTYqe-73" target="1zBLeMrhRtIh_GhyTYqe-85">
          <mxGeometry relative="1" as="geometry">
            <mxPoint x="700" y="470" as="targetPoint" />
            <Array as="points">
              <mxPoint x="10" y="1130" />
              <mxPoint x="701" y="1130" />
              <mxPoint x="701" y="465" />
            </Array>
          </mxGeometry>
        </mxCell>
        <mxCell id="1zBLeMrhRtIh_GhyTYqe-73" value="Take cash" style="rounded=1;whiteSpace=wrap;html=1;arcSize=50;" vertex="1" parent="1">
          <mxGeometry x="-50" y="1058" width="120" height="60" as="geometry" />
        </mxCell>
        <mxCell id="1zBLeMrhRtIh_GhyTYqe-89" style="edgeStyle=orthogonalEdgeStyle;rounded=0;orthogonalLoop=1;jettySize=auto;html=1;entryX=0.5;entryY=1;entryDx=0;entryDy=0;" edge="1" parent="1" target="1zBLeMrhRtIh_GhyTYqe-85">
          <mxGeometry relative="1" as="geometry">
            <mxPoint x="635" y="528" as="targetPoint" />
            <mxPoint x="290" y="1038" as="sourcePoint" />
          </mxGeometry>
        </mxCell>
        <mxCell id="1zBLeMrhRtIh_GhyTYqe-74" value="View Balance" style="rounded=1;whiteSpace=wrap;html=1;" vertex="1" parent="1">
          <mxGeometry x="200" y="960" width="120" height="80" as="geometry" />
        </mxCell>
        <mxCell id="1zBLeMrhRtIh_GhyTYqe-76" value="Not enough" style="text;html=1;align=center;verticalAlign=middle;resizable=0;points=[];autosize=1;strokeColor=none;fillColor=none;" vertex="1" parent="1">
          <mxGeometry x="115" y="1018" width="90" height="30" as="geometry" />
        </mxCell>
        <mxCell id="1zBLeMrhRtIh_GhyTYqe-90" style="edgeStyle=orthogonalEdgeStyle;rounded=0;orthogonalLoop=1;jettySize=auto;html=1;" edge="1" parent="1" source="1zBLeMrhRtIh_GhyTYqe-77">
          <mxGeometry relative="1" as="geometry">
            <mxPoint x="680" y="480" as="targetPoint" />
            <Array as="points">
              <mxPoint x="680" y="1090" />
              <mxPoint x="680" y="476" />
            </Array>
          </mxGeometry>
        </mxCell>
        <mxCell id="1zBLeMrhRtIh_GhyTYqe-77" value="Give Error message" style="rounded=1;whiteSpace=wrap;html=1;" vertex="1" parent="1">
          <mxGeometry x="130" y="1060" width="110" height="60" as="geometry" />
        </mxCell>
        <mxCell id="1zBLeMrhRtIh_GhyTYqe-81" style="edgeStyle=orthogonalEdgeStyle;rounded=0;orthogonalLoop=1;jettySize=auto;html=1;entryX=0.25;entryY=1;entryDx=0;entryDy=0;" edge="1" parent="1" source="1zBLeMrhRtIh_GhyTYqe-78" target="1zBLeMrhRtIh_GhyTYqe-84">
          <mxGeometry relative="1" as="geometry">
            <mxPoint x="600" y="360" as="targetPoint" />
          </mxGeometry>
        </mxCell>
        <mxCell id="1zBLeMrhRtIh_GhyTYqe-78" value="View balance" style="rounded=1;whiteSpace=wrap;html=1;" vertex="1" parent="1">
          <mxGeometry x="340" y="950" width="120" height="60" as="geometry" />
        </mxCell>
        <mxCell id="1zBLeMrhRtIh_GhyTYqe-80" style="edgeStyle=orthogonalEdgeStyle;rounded=0;orthogonalLoop=1;jettySize=auto;html=1;" edge="1" parent="1" source="1zBLeMrhRtIh_GhyTYqe-79">
          <mxGeometry relative="1" as="geometry">
            <mxPoint x="580" y="380" as="targetPoint" />
            <Array as="points">
              <mxPoint x="561" y="810" />
            </Array>
          </mxGeometry>
        </mxCell>
        <mxCell id="1zBLeMrhRtIh_GhyTYqe-79" value="Reset pin" style="rounded=1;whiteSpace=wrap;html=1;" vertex="1" parent="1">
          <mxGeometry x="410" y="780" width="120" height="60" as="geometry" />
        </mxCell>
        <mxCell id="1zBLeMrhRtIh_GhyTYqe-84" value="Eject card" style="rounded=1;whiteSpace=wrap;html=1;" vertex="1" parent="1">
          <mxGeometry x="580" y="330" width="120" height="60" as="geometry" />
        </mxCell>
        <mxCell id="1zBLeMrhRtIh_GhyTYqe-85" value="" style="ellipse;html=1;shape=endState;fillColor=#000000;strokeColor=#ff0000;" vertex="1" parent="1">
          <mxGeometry x="650" y="450" width="30" height="30" as="geometry" />
        </mxCell>
        <mxCell id="1zBLeMrhRtIh_GhyTYqe-87" style="edgeStyle=orthogonalEdgeStyle;rounded=0;orthogonalLoop=1;jettySize=auto;html=1;" edge="1" parent="1" source="1zBLeMrhRtIh_GhyTYqe-84">
          <mxGeometry relative="1" as="geometry">
            <mxPoint x="665" y="450" as="targetPoint" />
          </mxGeometry>
        </mxCell>
      </root>
    </mxGraphModel>
  </diagram>
</mxfile>
